<svg width="14" height="14" viewBox="0 0 14 14" fill="none" xmlns="http://www.w3.org/2000/svg">
<g id="upload-file 1">
<path id="Vector" d="M7.57005 10.8675H3.78586C3.64248 10.8675 3.50498 10.8105 3.4036 10.7092C3.30221 10.6078 3.24526 10.4703 3.24526 10.3269V2.75851C3.24526 2.61514 3.30221 2.47763 3.4036 2.37625C3.50498 2.27487 3.64248 2.21792 3.78586 2.21792H6.48885V3.83971C6.48885 4.26984 6.65972 4.68235 6.96386 4.98649C7.26801 5.29064 7.68052 5.4615 8.11064 5.4615H9.73244V6.5427C9.73244 6.68608 9.78939 6.82358 9.89078 6.92496C9.99216 7.02634 10.1297 7.0833 10.273 7.0833C10.4164 7.0833 10.5539 7.02634 10.6553 6.92496C10.7567 6.82358 10.8136 6.68608 10.8136 6.5427V4.92091C10.8136 4.92091 10.8136 4.92091 10.8136 4.88847C10.808 4.83881 10.7971 4.78988 10.7812 4.74251V4.69386C10.7552 4.63827 10.7205 4.58718 10.6785 4.54249L7.4349 1.2989C7.39021 1.25685 7.33911 1.22218 7.28353 1.19618C7.26739 1.19389 7.25101 1.19389 7.23487 1.19618C7.17996 1.16469 7.11931 1.14447 7.05648 1.13672H3.78586C3.35573 1.13672 2.94322 1.30759 2.63908 1.61173C2.33493 1.91588 2.16406 2.32839 2.16406 2.75851V10.3269C2.16406 10.757 2.33493 11.1695 2.63908 11.4737C2.94322 11.7778 3.35573 11.9487 3.78586 11.9487H7.57005C7.71342 11.9487 7.85092 11.8917 7.95231 11.7903C8.05369 11.689 8.11064 11.5515 8.11064 11.4081C8.11064 11.2647 8.05369 11.1272 7.95231 11.0258C7.85092 10.9244 7.71342 10.8675 7.57005 10.8675ZM7.57005 2.98016L8.9702 4.38031H8.11064C7.96727 4.38031 7.82977 4.32335 7.72838 4.22197C7.627 4.12059 7.57005 3.98309 7.57005 3.83971V2.98016ZM4.86705 4.38031C4.72368 4.38031 4.58618 4.43726 4.48479 4.53865C4.38341 4.64003 4.32646 4.77753 4.32646 4.92091C4.32646 5.06428 4.38341 5.20179 4.48479 5.30317C4.58618 5.40455 4.72368 5.4615 4.86705 5.4615H5.40765C5.55103 5.4615 5.68853 5.40455 5.78991 5.30317C5.89129 5.20179 5.94825 5.06428 5.94825 4.92091C5.94825 4.77753 5.89129 4.64003 5.78991 4.53865C5.68853 4.43726 5.55103 4.38031 5.40765 4.38031H4.86705ZM8.11064 6.5427H4.86705C4.72368 6.5427 4.58618 6.59966 4.48479 6.70104C4.38341 6.80242 4.32646 6.93992 4.32646 7.0833C4.32646 7.22668 4.38341 7.36418 4.48479 7.46556C4.58618 7.56694 4.72368 7.6239 4.86705 7.6239H8.11064C8.25402 7.6239 8.39152 7.56694 8.4929 7.46556C8.59429 7.36418 8.65124 7.22668 8.65124 7.0833C8.65124 6.93992 8.59429 6.80242 8.4929 6.70104C8.39152 6.59966 8.25402 6.5427 8.11064 6.5427ZM11.7381 9.40247L10.6569 8.32127C10.6054 8.27205 10.5448 8.23347 10.4785 8.20774C10.3468 8.15367 10.1992 8.15367 10.0676 8.20774C10.0013 8.23347 9.94063 8.27205 9.88921 8.32127L8.80802 9.40247C8.70622 9.50426 8.64903 9.64233 8.64903 9.78629C8.64903 9.93025 8.70622 10.0683 8.80802 10.1701C8.90981 10.2719 9.04788 10.3291 9.19184 10.3291C9.3358 10.3291 9.47387 10.2719 9.57566 10.1701L9.73244 10.0079V11.4081C9.73244 11.5515 9.78939 11.689 9.89078 11.7903C9.99216 11.8917 10.1297 11.9487 10.273 11.9487C10.4164 11.9487 10.5539 11.8917 10.6553 11.7903C10.7567 11.689 10.8136 11.5515 10.8136 11.4081V10.0079L10.9704 10.1701C11.0207 10.2208 11.0805 10.261 11.1463 10.2884C11.2122 10.3159 11.2829 10.33 11.3542 10.33C11.4256 10.33 11.4963 10.3159 11.5621 10.2884C11.628 10.261 11.6878 10.2208 11.7381 10.1701C11.7887 10.1199 11.8289 10.0601 11.8564 9.99419C11.8838 9.92832 11.898 9.85766 11.898 9.78629C11.898 9.71493 11.8838 9.64427 11.8564 9.57839C11.8289 9.51251 11.7887 9.45272 11.7381 9.40247ZM7.02945 9.78629C7.17282 9.78629 7.31033 9.72934 7.41171 9.62795C7.51309 9.52657 7.57005 9.38907 7.57005 9.24569C7.57005 9.10232 7.51309 8.96481 7.41171 8.86343C7.31033 8.76205 7.17282 8.70509 7.02945 8.70509H4.86705C4.72368 8.70509 4.58618 8.76205 4.48479 8.86343C4.38341 8.96481 4.32646 9.10232 4.32646 9.24569C4.32646 9.38907 4.38341 9.52657 4.48479 9.62795C4.58618 9.72934 4.72368 9.78629 4.86705 9.78629H7.02945Z" fill="black"/>
</g>
</svg>
